<svg xmlns="http://www.w3.org/2000/svg" viewBox="0 0 512 512"><defs><style>.cls-1{fill:#a99bd4;}.cls-2{fill:#fff;}.cls-3{fill:#e2e2e2;}.cls-4{fill:#366fca;}.cls-5{fill:#32314b;}.cls-6{fill:#db1b1b;}.cls-7{fill:#bc1515;}.cls-8{fill:#3586cb;}</style></defs><title>Public Transport</title><g id="BULINE"><circle class="cls-1" cx="256" cy="256" r="256"/></g><g id="Icons"><path class="cls-2" d="M296.44,117.8,285.85,97.86l-4-7.55c-2-3.72-5.17-5.92-8.57-5.92h-2.52L264.4,62.83a3.23,3.23,0,0,0-3.23-3.22H155.89a3.22,3.22,0,0,0-3.23,3.22A23,23,0,0,0,154,70.68l5,13.71h-7.2c-5.66,0-10.27,6-10.51,13.47,0,.2,0,.4,0,.61V127h160ZM167.06,84.39l-6.33-17.51h12.66l6.34,17.51Zm20.74,0-6.33-17.51h12.66l6.33,17.51Zm20.73,0L202.2,66.88h12.67l6.33,17.51Zm20.74,0-6.33-17.51H235.6l6.33,17.51Zm20.73,0-6.33-17.51h12.67l6.33,17.51Z"/><path class="cls-2" d="M488.13,186.78H455.07V79.32a4,4,0,0,0-7.91,0V186.78H95.4A19,19,0,0,0,77,201.41l-4.66,20c-.2.81-.41,1.61-.66,2.39a36.1,36.1,0,0,1-34.52,25.51H24.05a8.4,8.4,0,0,0-6.19,14.08l26.85,29.23a29.37,29.37,0,0,0,21.63,9.5H431.21a33.05,33.05,0,0,0,31.06-21.73l31.29-85.84A5.77,5.77,0,0,0,488.13,186.78Z"/><path class="cls-3" d="M471.64,254.67l-9.37,25.69a33.05,33.05,0,0,1-31.06,21.73H66.34a29.37,29.37,0,0,1-21.63-9.5L17.86,263.36a8.28,8.28,0,0,1-1.65-8.69Z"/><rect class="cls-2" x="106.78" y="143.67" width="229.02" height="43.11"/><path class="cls-3" d="M131.57,149.6h180a15.63,15.63,0,0,1,15.63,15.63v21.55a0,0,0,0,1,0,0H115.94a0,0,0,0,1,0,0V165.22A15.63,15.63,0,0,1,131.57,149.6Z"/><path class="cls-4" d="M482.9,223.77l-7.21,19.77h-419a36.08,36.08,0,0,0,15-19.77Z"/><circle class="cls-5" cx="111.09" cy="272.46" r="11.85"/><circle class="cls-5" cx="163.9" cy="272.46" r="11.85"/><circle class="cls-5" cx="216.71" cy="272.46" r="11.85"/><circle class="cls-5" cx="269.52" cy="272.46" r="11.85"/><circle class="cls-5" cx="322.33" cy="272.46" r="11.85"/><circle class="cls-5" cx="375.14" cy="272.46" r="11.85"/><path class="cls-4" d="M114.87,127H327.72A8.08,8.08,0,0,1,335.8,135v8.62a0,0,0,0,1,0,0h-229a0,0,0,0,1,0,0V135A8.08,8.08,0,0,1,114.87,127Z"/><path class="cls-5" d="M296.44,117.8h-67.6a10,10,0,1,1,0-19.94h57Z"/><path class="cls-5" d="M203.78,107.83a10,10,0,0,1-10,10H141.27V98.47c0-.21,0-.41,0-.61h52.53A10,10,0,0,1,203.78,107.83Z"/><path class="cls-5" d="M139.38,158.22h0A13.74,13.74,0,0,1,153.12,172v14.82a0,0,0,0,1,0,0H125.64a0,0,0,0,1,0,0V172A13.74,13.74,0,0,1,139.38,158.22Z"/><path class="cls-5" d="M180.34,158.22h0A13.74,13.74,0,0,1,194.08,172v14.82a0,0,0,0,1,0,0H166.6a0,0,0,0,1,0,0V172A13.74,13.74,0,0,1,180.34,158.22Z"/><path class="cls-5" d="M221.29,158.22h0A13.74,13.74,0,0,1,235,172v14.82a0,0,0,0,1,0,0H207.55a0,0,0,0,1,0,0V172A13.74,13.74,0,0,1,221.29,158.22Z"/><path class="cls-5" d="M262.24,158.22h0A13.74,13.74,0,0,1,276,172v14.82a0,0,0,0,1,0,0H248.5a0,0,0,0,1,0,0V172a13.74,13.74,0,0,1,13.74-13.74Z"/><path class="cls-5" d="M303.2,158.22h0A13.74,13.74,0,0,1,316.94,172v14.82a0,0,0,0,1,0,0H289.46a0,0,0,0,1,0,0V172A13.74,13.74,0,0,1,303.2,158.22Z"/><path class="cls-6" d="M447.16,79.32v24.12H390.75a1.56,1.56,0,0,1-1.1-2.66l3.64-3.65a8.14,8.14,0,0,0,0-11.5L389.65,82a1.56,1.56,0,0,1,1.1-2.66Z"/><rect class="cls-7" x="439.26" y="79.32" width="7.9" height="24.12"/><path class="cls-8" d="M508.41,298.9C488,419.86,382.76,512,256,512,128.84,512,23.33,419.28,3.4,297.76q106.35-18.83,213.67,1a198.57,198.57,0,0,0,72-.1Q398.21,278.38,508.41,298.9Z"/></g></svg>