<?xml version="1.0" encoding="UTF-8"?>
<!DOCTYPE svg PUBLIC "-//W3C//DTD SVG 1.1//EN" "http://www.w3.org/Graphics/SVG/1.1/DTD/svg11.dtd">
<!-- Creator: CorelDRAW -->
<svg xmlns="http://www.w3.org/2000/svg" xml:space="preserve" width="2048px" height="2048px" style="shape-rendering:geometricPrecision; text-rendering:geometricPrecision; image-rendering:optimizeQuality; fill-rule:evenodd; clip-rule:evenodd"
viewBox="0 0 2048 2048"
 xmlns:xlink="http://www.w3.org/1999/xlink">
 <defs>
  <style type="text/css">
   <![CDATA[
    .fil0 {fill:#FF5722}
    .fil2 {fill:#FFFFFE}
    .fil1 {fill:#FFFFFE;fill-rule:nonzero}
   ]]>
  </style>
 </defs>
 <g id="Layer_x0020_1">
  <metadata id="CorelCorpID_0Corel-Layer"/>
  <circle class="fil0" cx="1024" cy="1024" r="1024"/>
  <g id="_521353624">
   <path id="_521354368" class="fil1" d="M561.391 763.799l919.807 0c11.9528,0 21.6437,9.68977 21.6437,21.6425l0 8.46142 0 31.5425 -903.577 0 0 451.212 -37.8733 0 -4.05827 0 0 -0.381496c-10.0122,-1.89921 -17.5854,-10.6949 -17.5854,-21.261l0 -469.574c0,-11.9528 9.69095,-21.6425 21.6437,-21.6425z"/>
   <g>
    <path id="_521354320" class="fil2" d="M1562.36 847.088l-919.808 0c-11.9516,0 -21.6425,9.68977 -21.6425,21.6425l0 469.574c0,11.9528 9.69095,21.6437 21.6425,21.6437l919.808 0c11.9528,0 21.6425,-9.69095 21.6425,-21.6437l0 -469.574c0,-11.9528 -9.68977,-21.6425 -21.6425,-21.6425zm-801.186 82.8662l682.565 0c6.44174,0 11.6669,5.22402 11.6669,11.6669 0,8.70827 3.57166,16.6358 9.32481,22.389 5.75315,5.75315 13.6807,9.32599 22.389,9.32599 6.44292,0 11.6669,5.22402 11.6669,11.6669l0 237.03c0,6.44292 -5.22402,11.6669 -11.6669,11.6669 -8.70827,0 -16.6358,3.57284 -22.389,9.32599 -5.75315,5.75315 -9.32481,13.6807 -9.32481,22.389 0,6.44292 -5.2252,11.6669 -11.6669,11.6669l-682.565 0c-6.44292,0 -11.6669,-5.22402 -11.6669,-11.6669 0,-8.70827 -3.57284,-16.6358 -9.32599,-22.389 -5.75197,-5.75315 -13.6795,-9.32599 -22.389,-9.32599 -6.44292,0 -11.6669,-5.22402 -11.6669,-11.6669l0 -237.03c0,-6.44292 5.22402,-11.6669 11.6669,-11.6669 8.70946,0 16.637,-3.57284 22.389,-9.32599 5.75315,-5.75315 9.32599,-13.6807 9.32599,-22.389 0,-6.44292 5.22402,-11.6669 11.6669,-11.6669z"/>
    <path id="_521354272" class="fil2" d="M1433.32 953.289l-661.732 0c-2.28189,10.4882 -7.57205,19.8815 -14.9114,27.2197 -7.33819,7.33819 -16.7315,12.6295 -27.2197,14.9114l0 216.197c10.4882,2.28189 19.8815,7.57323 27.2197,14.9114 7.33938,7.33819 12.6295,16.7315 14.9114,27.2197l661.732 0c2.28307,-10.4882 7.57323,-19.8815 14.9114,-27.2197 7.33819,-7.33819 16.7315,-12.6295 27.2197,-14.9114l0 -216.197c-10.4882,-2.28189 -19.8815,-7.57323 -27.2197,-14.9114 -7.33819,-7.33819 -12.6284,-16.7315 -14.9114,-27.2197zm-425.17 55.9264c24.1358,-24.1358 57.4772,-39.065 94.304,-39.065 36.8268,0 70.1693,14.9291 94.304,39.065 24.1347,24.1347 39.0638,57.4772 39.0638,94.3028 0,36.8268 -14.9291,70.1693 -39.0638,94.304 -24.1347,24.1347 -57.4772,39.0638 -94.304,39.0638 -36.8256,0 -70.1682,-14.9291 -94.304,-39.0638 -24.1335,-24.1347 -39.0626,-57.4772 -39.0626,-94.304 0,-36.8256 14.928,-70.1682 39.0626,-94.3028zm262.174 125.963l173.001 0 0 23.3339 -173.001 0 0 -23.3339zm0 -86.6552l173.001 0 0 23.3339 -173.001 0 0 -23.3339zm-519.421 0.446457l173.001 0 0 23.3339 -173.001 0 0 -23.3339zm0 86.6552l173.001 0 0 23.3339 -173.001 0 0 -23.3339z"/>
    <path id="_521354968" class="fil2" d="M1180.26 1025.71c-19.911,-19.9122 -47.4201,-32.2288 -77.8064,-32.2288 -30.3851,0 -57.8941,12.3165 -77.8064,32.2288 -19.9099,19.9099 -32.2264,47.4201 -32.2264,77.8052 0,30.3862 12.3165,57.8953 32.2264,77.8064 19.9122,19.911 47.4213,32.2276 77.8064,32.2276 30.3862,0 57.8953,-12.3165 77.8064,-32.2276 19.911,-19.911 32.2276,-47.4201 32.2276,-77.8064 0,-30.3851 -12.3165,-57.8953 -32.2276,-77.8052zm-131.21 41.23c0,-11.8547 4.1563,-21.7358 12.4347,-29.7083 8.27953,-7.9382 20.6126,-12.3673 36.965,-13.2189l0 -9.88111 14.5831 0 0 9.88111c14.9232,0.920079 26.302,4.46339 34.1717,10.5957 7.90512,6.09804 13.05,14.4803 15.4347,25.1445l-37.1374 5.89371c-1.83898,-4.73622 -3.54213,-8.0067 -5.04095,-9.84568 -1.5,-1.84134 -3.95197,-3.68032 -7.42796,-5.55473l0 28.8579c20.2382,5.38347 33.7299,11.0728 40.5437,17.0693 8.96103,8.04095 13.4575,18.2622 13.4575,30.6638 0,7.22245 -1.60158,13.9004 -4.8378,19.9642 -3.23622,6.03071 -7.35945,11.1071 -12.3685,15.1618 -5.04095,4.05473 -10.3902,6.98504 -16.0465,8.82402 -5.6563,1.84016 -12.5717,2.93032 -20.7484,3.2374l0 18.874 -14.5831 0 0 -18.874c-9.77717,-0.852757 -17.7154,-2.42008 -23.7792,-4.73622 -6.09922,-2.28307 -11.3457,-5.45079 -15.776,-9.53977 -4.42914,-4.05473 -7.83544,-8.41536 -10.2543,-13.1173 -2.38583,-4.70197 -4.19055,-10.3571 -5.38347,-17.0008l40.3394 -4.70197c1.19291,6.57638 2.79331,11.3457 4.8378,14.2748 2.01024,2.93032 5.38347,5.52048 10.0158,7.7693l0 -35.2288c-13.4221,-3.71339 -22.9618,-6.94961 -28.5839,-9.6756 -5.62205,-2.72599 -10.4941,-7.0878 -14.6162,-13.1173 -4.12323,-6.03071 -6.19961,-13.3559 -6.19961,-22.011z"/>
    <path id="_521354584" class="fil2" d="M1098.45 1075.32l0 -25.5532c-4.25788,1.39725 -7.22245,3.13465 -8.85709,5.17914 -1.67008,2.07874 -2.52166,4.49764 -2.52166,7.29213 0,2.92914 0.851575,5.48386 2.55591,7.63111 1.70315,2.18032 4.63229,3.98622 8.82284,5.45079z"/>
    <path id="_521354560" class="fil2" d="M1126.05 1123.36c-2.21575,-2.62323 -6.54213,-5.04213 -13.0158,-7.32402l0 31.9571c5.65512,-1.26024 9.81261,-3.33898 12.4358,-6.23504 2.62323,-2.89607 3.95197,-6.16654 3.95197,-9.7441 0,-3.13347 -1.12441,-5.99646 -3.37205,-8.65394z"/>
   </g>
   <path id="_521354392" class="fil1" d="M485.642 688.052l919.807 0c11.9528,0 21.6437,9.68977 21.6437,21.6425l0 8.46142 0 31.5425 -903.577 0 0 451.212 -37.8733 0 -4.05827 0 0 -0.381496c-10.0122,-1.9004 -17.5854,-10.6961 -17.5854,-21.261l0 -469.574c0,-11.9528 9.69095,-21.6425 21.6437,-21.6425z"/>
  </g>
 </g>
</svg>
