<?xml version="1.0" encoding="UTF-8"?>
<!DOCTYPE svg PUBLIC "-//W3C//DTD SVG 1.1//EN" "http://www.w3.org/Graphics/SVG/1.1/DTD/svg11.dtd">
<!-- Creator: CorelDRAW -->
<svg xmlns="http://www.w3.org/2000/svg" xml:space="preserve" width="2048px" height="2048px" style="shape-rendering:geometricPrecision; text-rendering:geometricPrecision; image-rendering:optimizeQuality; fill-rule:evenodd; clip-rule:evenodd"
viewBox="0 0 2048 2048"
 xmlns:xlink="http://www.w3.org/1999/xlink">
 <defs>
  <style type="text/css">
   <![CDATA[
    .fil0 {fill:#9E9E9E}
    .fil2 {fill:#FFFFFE}
    .fil1 {fill:#FFFFFE;fill-rule:nonzero}
   ]]>
  </style>
 </defs>
 <g id="Layer_x0020_1">
  <metadata id="CorelCorpID_0Corel-Layer"/>
  <circle class="fil0" cx="1024" cy="1024" r="1024"/>
  <g id="_374927040">
   <path id="_374896008" class="fil1" d="M1579.68 1014.24c2.83819,5.38937 4.32284,11.0457 4.32284,16.9382 0,28.1221 -33.6792,50.8713 -88.128,64.9158 -46.2296,11.9221 -109.468,19.298 -178.756,19.298 -69.2871,0 -132.527,-7.37599 -178.755,-19.298 -54.4489,-14.0445 -88.128,-36.7937 -88.128,-64.9158 0,-5.89252 1.48465,-11.5488 4.32284,-16.9382 21.926,18.8917 53.2737,30.5126 77.9209,37.2355 14.3575,3.91536 29.2217,7.18819 44.3693,9.90001 38.9445,7.36536 87.4312,11.7213 140.27,11.7213 52.839,0 101.327,-4.35591 140.271,-11.7213 15.1476,-2.71181 30.0107,-5.98465 44.3681,-9.90001 24.6484,-6.72284 55.9961,-18.3437 77.9221,-37.2355z"/>
   <path id="_374895696" class="fil1" d="M1579.68 1078.77c2.83819,5.38937 4.32284,11.0457 4.32284,16.9382 0,28.1221 -33.6792,50.8713 -88.128,64.9158 -46.2296,11.9221 -109.468,19.298 -178.756,19.298 -69.2871,0 -132.527,-7.37599 -178.755,-19.298 -54.4489,-14.0445 -88.128,-36.7937 -88.128,-64.9158 0,-5.89252 1.48465,-11.5488 4.32284,-16.9382 21.926,18.8917 53.2737,30.5126 77.9209,37.2355 14.3575,3.91536 29.2217,7.18819 44.3693,9.90001 38.9445,7.36536 87.4312,11.7213 140.27,11.7213 52.839,0 101.327,-4.35591 140.271,-11.7213 15.1476,-2.71181 30.0107,-5.98465 44.3681,-9.90001 24.6484,-6.72284 55.9961,-18.3437 77.9221,-37.2355z"/>
   <path id="_374895936" class="fil1" d="M1579.68 1146.11c2.83819,5.38937 4.32284,11.0457 4.32284,16.937 0,28.1232 -33.6792,50.8725 -88.128,64.917 -46.2296,11.9221 -109.468,19.298 -178.756,19.298 -69.2871,0 -132.527,-7.37599 -178.755,-19.298 -54.4489,-14.0445 -88.128,-36.7937 -88.128,-64.917 0,-5.89134 1.48465,-11.5476 4.32284,-16.937 21.926,18.8917 53.2737,30.5126 77.9209,37.2355 14.3575,3.91536 29.2217,7.18819 44.3693,9.90001 38.9445,7.36536 87.4312,11.7213 140.27,11.7213 52.839,0 101.327,-4.35591 140.271,-11.7213 15.1476,-2.71181 30.0107,-5.98465 44.3681,-9.90001 24.6484,-6.72284 55.9961,-18.3437 77.9221,-37.2355z"/>
   <path id="_374895216" class="fil1" d="M1579.68 1213.44c2.83819,5.38937 4.32284,11.0457 4.32284,16.937 0,28.1232 -33.6792,50.8725 -88.128,64.9158 -46.2296,11.9232 -109.468,19.298 -178.756,19.298 -69.2871,0 -132.527,-7.37481 -178.755,-19.298 -54.4489,-14.0433 -88.128,-36.7925 -88.128,-64.9158 0,-5.89134 1.48465,-11.5476 4.32284,-16.937 21.926,18.8917 53.2737,30.5126 77.9209,37.2343 14.3575,3.91536 29.2217,7.18938 44.3693,9.90001 38.9445,7.36654 87.4312,11.7213 140.27,11.7213 52.839,0 101.327,-4.35473 140.271,-11.7213 15.1476,-2.71063 30.0107,-5.98465 44.3681,-9.90001 24.6484,-6.72166 55.9961,-18.3425 77.9221,-37.2343z"/>
   <path id="_374895456" class="fil1" d="M1579.68 1280.77c2.83819,5.38937 4.32284,11.0445 4.32284,16.937 0,28.1221 -33.6792,50.8725 -88.128,64.9158 -46.2296,11.9232 -109.468,19.298 -178.756,19.298 -69.2871,0 -132.527,-7.37481 -178.755,-19.298 -54.4489,-14.0433 -88.128,-36.7937 -88.128,-64.9158 0,-5.89252 1.48465,-11.5476 4.32284,-16.937 21.926,18.8917 53.2737,30.5126 77.9209,37.2343 14.3575,3.91536 29.2217,7.18938 44.3693,9.90001 38.9445,7.36654 87.4312,11.7213 140.27,11.7213 52.839,0 101.327,-4.35473 140.271,-11.7213 15.1476,-2.71063 30.0107,-5.98465 44.3681,-9.90001 24.6484,-6.72166 55.9961,-18.3425 77.9221,-37.2343z"/>
   <path id="_374895072" class="fil1" d="M1579.68 1348.1c2.83819,5.38937 4.32284,11.0457 4.32284,16.9382 0,28.1221 -33.6792,50.8725 -88.128,64.9158 -46.2296,11.9232 -109.468,19.298 -178.756,19.298 -69.2871,0 -132.527,-7.37481 -178.755,-19.298 -54.4489,-14.0433 -88.128,-36.7937 -88.128,-64.9158 0,-5.89252 1.48465,-11.5488 4.32284,-16.9382 21.926,18.8929 53.2737,30.5126 77.9209,37.2355 14.3575,3.91536 29.2217,7.18819 44.3693,9.90001 38.9445,7.36654 87.4312,11.7213 140.27,11.7213 52.839,0 101.327,-4.35473 140.271,-11.7213 15.1476,-2.71181 30.0107,-5.98465 44.3681,-9.90001 24.6484,-6.72284 55.9961,-18.3425 77.9221,-37.2355z"/>
   <path id="_374894856" class="fil1" d="M1579.68 1415.43c2.83819,5.38937 4.32284,11.0457 4.32284,16.9382 0,28.1221 -33.6792,50.8713 -88.128,64.9158 -46.2296,11.9232 -109.468,19.298 -178.756,19.298 -69.2871,0 -132.527,-7.37481 -178.755,-19.298 -54.4489,-14.0445 -88.128,-36.7937 -88.128,-64.9158 0,-5.89252 1.48465,-11.5488 4.32284,-16.9382 21.926,18.8917 53.2737,30.5126 77.9209,37.2355 14.3575,3.91536 29.2217,7.18819 44.3693,9.90001 38.9445,7.36536 87.4312,11.7213 140.27,11.7213 52.839,0 101.327,-4.35591 140.271,-11.7213 15.1476,-2.71181 30.0107,-5.98465 44.3681,-9.90001 24.6484,-6.72284 55.9961,-18.3437 77.9221,-37.2355z"/>
   <path id="_374894136" class="fil1" d="M993.444 676.241c2.83819,5.38937 4.32284,11.0457 4.32284,16.937 0,28.1232 -33.6792,50.8725 -88.128,64.9158 -46.2284,11.9232 -109.468,19.298 -178.755,19.298 -69.2882,0 -132.527,-7.37481 -178.756,-19.298 -54.4489,-14.0433 -88.1268,-36.7925 -88.1268,-64.9158 0,-5.89134 1.48347,-11.5476 4.32166,-16.937 21.926,18.8917 53.2737,30.5126 77.9221,37.2343 14.3575,3.91536 29.2205,7.18938 44.3681,9.90001 38.9445,7.36654 87.4324,11.7213 140.271,11.7213 52.839,0 101.326,-4.35473 140.27,-11.7213 15.1476,-2.71063 30.0118,-5.98465 44.3693,-9.90001 24.6473,-6.72166 55.9949,-18.3425 77.9209,-37.2343z"/>
   <path id="_374894424" class="fil1" d="M993.444 740.776c2.83819,5.38937 4.32284,11.0457 4.32284,16.937 0,28.1232 -33.6792,50.8725 -88.128,64.9158 -46.2284,11.9232 -109.468,19.298 -178.755,19.298 -69.2882,0 -132.527,-7.37481 -178.756,-19.298 -54.4489,-14.0433 -88.1268,-36.7925 -88.1268,-64.9158 0,-5.89134 1.48347,-11.5476 4.32166,-16.937 21.926,18.8917 53.2737,30.5126 77.9221,37.2343 14.3575,3.91536 29.2205,7.18938 44.3681,9.90001 38.9445,7.36654 87.4324,11.7224 140.271,11.7224 52.839,0 101.326,-4.35591 140.27,-11.7224 15.1476,-2.71063 30.0118,-5.98465 44.3693,-9.90001 24.6473,-6.72166 55.9949,-18.3425 77.9209,-37.2343z"/>
   <path id="_374894520" class="fil1" d="M993.444 808.107c2.83819,5.38937 4.32284,11.0445 4.32284,16.937 0,28.1221 -33.6792,50.8725 -88.128,64.9158 -46.2284,11.9232 -109.468,19.298 -178.755,19.298 -69.2882,0 -132.527,-7.37481 -178.756,-19.298 -54.4489,-14.0433 -88.1268,-36.7937 -88.1268,-64.9158 0,-5.89252 1.48347,-11.5476 4.32166,-16.937 21.926,18.8917 53.2737,30.5126 77.9221,37.2343 14.3575,3.91536 29.2205,7.18938 44.3681,9.90001 38.9445,7.36654 87.4324,11.7213 140.271,11.7213 52.839,0 101.326,-4.35473 140.27,-11.7213 15.1476,-2.71063 30.0118,-5.98465 44.3693,-9.90001 24.6473,-6.72166 55.9949,-18.3425 77.9209,-37.2343z"/>
   <path id="_374894496" class="fil1" d="M993.444 875.437c2.83819,5.39056 4.32284,11.0457 4.32284,16.9382 0,28.1221 -33.6792,50.8725 -88.128,64.9158 -46.2284,11.9232 -109.468,19.298 -178.755,19.298 -69.2882,0 -132.527,-7.37481 -178.756,-19.298 -54.4489,-14.0433 -88.1268,-36.7937 -88.1268,-64.9158 0,-5.89252 1.48347,-11.5476 4.32166,-16.9382 21.926,18.8929 53.2737,30.5138 77.9221,37.2355 14.3575,3.91536 29.2205,7.18938 44.3681,9.90001 38.9445,7.36654 87.4324,11.7213 140.271,11.7213 52.839,0 101.326,-4.35473 140.27,-11.7213 15.1476,-2.71063 30.0118,-5.98465 44.3693,-9.90001 24.6473,-6.72166 55.9949,-18.3425 77.9209,-37.2355z"/>
   <path id="_374894568" class="fil1" d="M993.444 942.768c2.83819,5.38937 4.32284,11.0457 4.32284,16.9382 0,28.1221 -33.6792,50.8713 -88.128,64.9158 -46.2284,11.9232 -109.468,19.298 -178.755,19.298 -69.2882,0 -132.527,-7.37481 -178.756,-19.298 -54.4489,-14.0445 -88.1268,-36.7937 -88.1268,-64.9158 0,-5.89252 1.48347,-11.5488 4.32166,-16.9382 21.926,18.8917 53.2737,30.5126 77.9221,37.2355 14.3575,3.91536 29.2205,7.18819 44.3681,9.90001 38.9445,7.36654 87.4324,11.7213 140.271,11.7213 52.839,0 101.326,-4.35473 140.27,-11.7213 15.1476,-2.71181 30.0118,-5.98465 44.3693,-9.90001 24.6473,-6.72284 55.9949,-18.3437 77.9209,-37.2355z"/>
   <path id="_374894232" class="fil1" d="M993.444 1010.1c2.83819,5.38937 4.32284,11.0457 4.32284,16.9382 0,28.1221 -33.6792,50.8713 -88.128,64.9158 -46.2284,11.9221 -109.468,19.298 -178.755,19.298 -69.2882,0 -132.527,-7.37599 -178.756,-19.298 -54.4489,-14.0445 -88.1268,-36.7937 -88.1268,-64.9158 0,-5.89252 1.48347,-11.5488 4.32166,-16.9382 21.926,18.8917 53.2737,30.5126 77.9221,37.2355 14.3575,3.91536 29.2205,7.18819 44.3681,9.90001 38.9445,7.36536 87.4324,11.7213 140.271,11.7213 52.839,0 101.326,-4.35591 140.27,-11.7213 15.1476,-2.71181 30.0118,-5.98465 44.3693,-9.90001 24.6473,-6.72284 55.9949,-18.3437 77.9209,-37.2355z"/>
   <path id="_374893440" class="fil1" d="M993.444 1077.43c2.83819,5.38937 4.32284,11.0457 4.32284,16.937 0,28.1232 -33.6792,50.8725 -88.128,64.917 -46.2284,11.9221 -109.468,19.298 -178.755,19.298 -69.2882,0 -132.527,-7.37599 -178.756,-19.298 -54.4489,-14.0445 -88.1268,-36.7937 -88.1268,-64.917 0,-5.89134 1.48347,-11.5476 4.32166,-16.937 21.926,18.8917 53.2737,30.5126 77.9221,37.2355 14.3575,3.91536 29.2205,7.18819 44.3681,9.90001 38.9445,7.36536 87.4324,11.7213 140.271,11.7213 52.839,0 101.326,-4.35591 140.27,-11.7213 15.1476,-2.71181 30.0118,-5.98465 44.3693,-9.90001 24.6473,-6.72284 55.9949,-18.3437 77.9209,-37.2355z"/>
   <path id="_374893296" class="fil1" d="M993.444 1146.11c2.83819,5.38937 4.32284,11.0457 4.32284,16.937 0,28.1232 -33.6792,50.8725 -88.128,64.917 -46.2284,11.9221 -109.468,19.298 -178.755,19.298 -69.2882,0 -132.527,-7.37599 -178.756,-19.298 -54.4489,-14.0445 -88.1268,-36.7937 -88.1268,-64.917 0,-5.89134 1.48347,-11.5476 4.32166,-16.937 21.926,18.8917 53.2737,30.5126 77.9221,37.2355 14.3575,3.91536 29.2205,7.18819 44.3681,9.90001 38.9445,7.36536 87.4324,11.7213 140.271,11.7213 52.839,0 101.326,-4.35591 140.27,-11.7213 15.1476,-2.71181 30.0118,-5.98465 44.3693,-9.90001 24.6473,-6.72284 55.9949,-18.3437 77.9209,-37.2355z"/>
   <path id="_374893632" class="fil1" d="M993.444 1213.44c2.83819,5.38937 4.32284,11.0457 4.32284,16.937 0,28.1232 -33.6792,50.8725 -88.128,64.9158 -46.2284,11.9232 -109.468,19.298 -178.755,19.298 -69.2882,0 -132.527,-7.37481 -178.756,-19.298 -54.4489,-14.0433 -88.1268,-36.7925 -88.1268,-64.9158 0,-5.89134 1.48347,-11.5476 4.32166,-16.937 21.926,18.8917 53.2737,30.5126 77.9221,37.2343 14.3575,3.91536 29.2205,7.18938 44.3681,9.90001 38.9445,7.36654 87.4324,11.7213 140.271,11.7213 52.839,0 101.326,-4.35473 140.27,-11.7213 15.1476,-2.71063 30.0118,-5.98465 44.3693,-9.90001 24.6473,-6.72166 55.9949,-18.3425 77.9209,-37.2343z"/>
   <path id="_374893704" class="fil1" d="M993.444 1280.77c2.83819,5.38937 4.32284,11.0445 4.32284,16.937 0,28.1221 -33.6792,50.8725 -88.128,64.9158 -46.2284,11.9232 -109.468,19.298 -178.755,19.298 -69.2882,0 -132.527,-7.37481 -178.756,-19.298 -54.4489,-14.0433 -88.1268,-36.7937 -88.1268,-64.9158 0,-5.89252 1.48347,-11.5476 4.32166,-16.937 21.926,18.8917 53.2737,30.5126 77.9221,37.2343 14.3575,3.91536 29.2205,7.18938 44.3681,9.90001 38.9445,7.36654 87.4324,11.7213 140.271,11.7213 52.839,0 101.326,-4.35473 140.27,-11.7213 15.1476,-2.71063 30.0118,-5.98465 44.3693,-9.90001 24.6473,-6.72166 55.9949,-18.3425 77.9209,-37.2343z"/>
   <path id="_374893392" class="fil1" d="M993.444 1348.1c2.83819,5.38937 4.32284,11.0457 4.32284,16.9382 0,28.1221 -33.6792,50.8725 -88.128,64.9158 -46.2284,11.9232 -109.468,19.298 -178.755,19.298 -69.2882,0 -132.527,-7.37481 -178.756,-19.298 -54.4489,-14.0433 -88.1268,-36.7937 -88.1268,-64.9158 0,-5.89252 1.48347,-11.5488 4.32166,-16.9382 21.926,18.8929 53.2737,30.5126 77.9221,37.2355 14.3575,3.91536 29.2205,7.18819 44.3681,9.90001 38.9445,7.36654 87.4324,11.7213 140.271,11.7213 52.839,0 101.326,-4.35473 140.27,-11.7213 15.1476,-2.71181 30.0118,-5.98465 44.3693,-9.90001 24.6473,-6.72284 55.9949,-18.3425 77.9209,-37.2355z"/>
   <path id="_374892840" class="fil1" d="M993.444 1415.43c2.83819,5.38937 4.32284,11.0457 4.32284,16.9382 0,28.1221 -33.6792,50.8713 -88.128,64.9158 -46.2284,11.9232 -109.468,19.298 -178.755,19.298 -69.2882,0 -132.527,-7.37481 -178.756,-19.298 -54.4489,-14.0445 -88.1268,-36.7937 -88.1268,-64.9158 0,-5.89252 1.48347,-11.5488 4.32166,-16.9382 21.926,18.8917 53.2737,30.5126 77.9221,37.2355 14.3575,3.91536 29.2205,7.18819 44.3681,9.90001 38.9445,7.36536 87.4324,11.7213 140.271,11.7213 52.839,0 101.326,-4.35591 140.27,-11.7213 15.1476,-2.71181 30.0118,-5.98465 44.3693,-9.90001 24.6473,-6.72284 55.9949,-18.3437 77.9209,-37.2355z"/>
   <g>
    <path id="_374893200" class="fil2" d="M706.248 614.581c5.81575,-8.7319 13.3725,-14.6894 22.6217,-17.8358 9.24922,-3.16536 21.1075,-4.74804 35.6244,-4.74804 16.1634,0 29.8087,1.99252 40.8898,5.95867 11.126,3.98504 17.9032,9.53268 20.4225,16.6252l25.0925 0 0 7.89568 -24.4524 0c-1.87559,6.29292 -7.64646,11.413 -17.3079,15.3414 -9.61536,3.92835 -23.2606,6.42402 -40.8898,7.52245l-3.75473 -14.2429c7.14213,-0.577559 13.3228,-1.67599 18.4996,-3.27756 5.17323,-1.58268 8.92796,-3.36969 11.263,-5.34331l-56.1839 0c-5.03859,7.1315 -12.5929,12.3638 -22.7575,15.6957 -10.1646,3.31418 -22.4835,4.99016 -36.952,4.99016 -14.6516,0 -26.9705,-1.88032 -36.9544,-5.64213 -9.9815,-3.77953 -15.7051,-8.78859 -17.2618,-15.0437l-13.2791 0 0 -7.89568 13.2791 0c1.74095,-5.78977 6.54804,-10.389 14.5618,-13.8142 8.0126,-3.40748 18.7276,-5.58662 32.1449,-6.53504l4.44095 13.7953c-10.5768,0.839764 -17.7201,3.01772 -21.4748,6.55394l52.428 0zm24.6343 94.9371c69.2882,0 132.528,-7.79882 178.756,-20.4071 54.4489,-14.85 88.128,-38.9055 88.128,-68.6422 0,-29.739 -33.6792,-53.7933 -88.1268,-68.6434 -46.2307,-12.6083 -109.469,-20.4059 -178.758,-20.4059 -69.2871,0 -132.526,7.79764 -178.755,20.4059 -54.4489,14.85 -88.128,38.9044 -88.128,68.6434 0,29.7366 33.6792,53.7922 88.128,68.6422 46.2296,12.6083 109.468,20.4071 178.755,20.4071z"/>
    <path id="_374893080" class="fil2" d="M676.76 629.515c4.71733,0 9.15827,-0.576378 13.187,-1.7315 4.07599,-1.17284 7.37245,-2.94213 9.89174,-5.3067l-46.4315 0c1.78583,2.15906 4.85315,3.85394 9.11221,5.13898 4.30394,1.26614 9.06615,1.89921 14.2406,1.89921z"/>
    <path id="_374893008" class="fil2" d="M743.841 614.581l52.2922 0c-1.23543,-2.73544 -4.35,-4.95118 -9.2941,-6.66497 -4.99134,-1.7126 -10.8059,-2.5689 -17.5382,-2.5689 -5.99882,0 -11.126,0.726379 -15.4772,2.16024 -4.35,1.43268 -7.69253,3.79843 -9.98268,7.07363z"/>
   </g>
   <g>
    <path id="_374893056" class="fil2" d="M1292.48 952.581c5.81575,-8.7319 13.3725,-14.6906 22.6217,-17.837 9.24922,-3.16536 21.1075,-4.74685 35.6244,-4.74685 16.1622,0 29.8087,1.99134 40.8898,5.95748 11.126,3.98504 17.9032,9.53268 20.4225,16.6264l25.0925 0 0 7.89449 -24.4524 0c-1.87559,6.2941 -7.64646,11.4142 -17.3079,15.3414 -9.61536,3.92953 -23.2606,6.42402 -40.8898,7.52363l-3.75473 -14.2441c7.14213,-0.577559 13.3228,-1.67599 18.4996,-3.27756 5.17323,-1.58268 8.92796,-3.36969 11.263,-5.34331l-56.1839 0c-5.03859,7.1315 -12.5929,12.3638 -22.7575,15.6957 -10.1646,3.31536 -22.4847,4.99134 -36.952,4.99134 -14.6516,0 -26.9705,-1.8815 -36.9544,-5.64331 -9.9815,-3.77953 -15.7051,-8.78741 -17.2618,-15.0437l-13.2791 0 0 -7.89449 13.2791 0c1.74095,-5.79095 6.54804,-10.389 14.5618,-13.8154 8.0126,-3.4063 18.7276,-5.58544 32.1449,-6.53504l4.44095 13.7965c-10.5768,0.838583 -17.7201,3.01654 -21.4748,6.55394l52.428 0zm24.6343 94.9359c69.2882,0 132.528,-7.79882 178.756,-20.4059 54.4489,-14.85 88.128,-38.9055 88.128,-68.6434 0,-29.739 -33.6792,-53.7933 -88.1268,-68.6422 -46.2307,-12.6083 -109.469,-20.4071 -178.758,-20.4071 -69.2871,0 -132.526,7.79882 -178.755,20.4071 -54.4489,14.8488 -88.128,38.9032 -88.128,68.6422 0,29.7378 33.6792,53.7933 88.128,68.6434 46.2296,12.6071 109.468,20.4059 178.755,20.4059z"/>
    <path id="_374892912" class="fil2" d="M1262.99 967.514c4.71851,0 9.15827,-0.576378 13.187,-1.7315 4.07717,-1.17284 7.37363,-2.94213 9.89292,-5.3067l-46.4315 0c1.78583,2.16024 4.85315,3.85394 9.11221,5.13898 4.30394,1.26614 9.06615,1.89921 14.2394,1.89921z"/>
    <path id="_374892864" class="fil2" d="M1330.07 952.581l52.2922 0c-1.23543,-2.73662 -4.35,-4.95237 -9.2941,-6.66497 -4.99134,-1.71378 -10.8059,-2.5689 -17.5382,-2.5689 -5.99882,0 -11.126,0.725197 -15.4772,2.15906 -4.35,1.43386 -7.69253,3.79843 -9.98268,7.07481z"/>
   </g>
  </g>
 </g>
</svg>
